<?xml version="1.0" standalone="no"?>
<svg xmlns="http://www.w3.org/2000/svg"   width="1792px" height="1792px">
    <title></title>
    <g>
        <path fill="white" transform="translate(0,256)" d="M1792 640q0 -182 -71 -348t-191 -286t-286 -191t-348 -71t-348 71t-286 191t-191 286t-71 348q0 222 101 414.5t276.5 317t390.5 155.5v-260q-221 -45 -366.5 -221t-145.5 -406q0 -130 51 -248.5t136.5 -204t204 -136.5t248.5 -51t248.5 51t204 136.5t136.5 204t51 248.5 q0 230 -145.5 406t-366.5 221v260q215 -31 390.5 -155.5t276.5 -317t101 -414.5z" />
        <animateTransform attributeType="xml" attributeName="transform" type="rotate" from="0 896 896" to="360 896 896" dur="0.7s" repeatCount="indefinite" />
    </g>
</svg>